<svg width="432" height="97" viewBox="0 0 432 97" fill="none" xmlns="http://www.w3.org/2000/svg">
<g clip-path="url(#clip0_1_2)">
<path d="M332.39 82.7845C332.338 82.3527 332.131 82.0175 331.767 81.7789C331.404 81.5402 330.958 81.4209 330.429 81.4209C330.043 81.4209 329.705 81.4834 329.415 81.6084C329.128 81.7334 328.904 81.9053 328.742 82.124C328.583 82.3428 328.503 82.5914 328.503 82.8698C328.503 83.1027 328.559 83.303 328.669 83.4706C328.783 83.6354 328.928 83.7732 329.104 83.884C329.28 83.9919 329.465 84.0814 329.658 84.1524C329.851 84.2206 330.029 84.276 330.191 84.3186L331.077 84.5573C331.304 84.6169 331.557 84.6993 331.836 84.8044C332.117 84.9095 332.385 85.053 332.641 85.2348C332.899 85.4138 333.113 85.6439 333.28 85.9252C333.448 86.2064 333.532 86.5516 333.532 86.9607C333.532 87.4323 333.408 87.8584 333.161 88.2391C332.917 88.6198 332.559 88.9223 332.087 89.1468C331.618 89.3712 331.049 89.4834 330.378 89.4834C329.753 89.4834 329.212 89.3826 328.755 89.1809C328.3 88.9791 327.942 88.6979 327.681 88.3371C327.422 87.9763 327.276 87.5573 327.242 87.08H328.333C328.361 87.4095 328.472 87.6823 328.665 87.8982C328.861 88.1113 329.108 88.2703 329.407 88.3755C329.708 88.4777 330.032 88.5289 330.378 88.5289C330.782 88.5289 331.144 88.4635 331.465 88.3328C331.786 88.1993 332.04 88.0147 332.228 87.7789C332.415 87.5402 332.509 87.2618 332.509 86.9436C332.509 86.6539 332.428 86.4181 332.266 86.2363C332.104 86.0544 331.891 85.9067 331.627 85.7931C331.363 85.6794 331.077 85.58 330.77 85.4948L329.696 85.188C329.015 84.9919 328.475 84.7121 328.077 84.3485C327.679 83.9848 327.48 83.509 327.48 82.9209C327.48 82.4323 327.613 82.0061 327.877 81.6425C328.144 81.276 328.502 80.9919 328.951 80.7902C329.402 80.5857 329.907 80.4834 330.463 80.4834C331.026 80.4834 331.526 80.5843 331.963 80.786C332.401 80.9848 332.747 81.2576 333.003 81.6041C333.262 81.9507 333.398 82.3442 333.412 82.7845H332.39ZM337.792 89.4664C337.201 89.4664 336.683 89.3257 336.236 89.0445C335.793 88.7632 335.447 88.3698 335.197 87.8641C334.95 87.3584 334.826 86.7675 334.826 86.0914C334.826 85.4095 334.95 84.8144 335.197 84.3059C335.447 83.7973 335.793 83.4024 336.236 83.1212C336.683 82.8399 337.201 82.6993 337.792 82.6993C338.383 82.6993 338.9 82.8399 339.343 83.1212C339.789 83.4024 340.136 83.7973 340.383 84.3059C340.633 84.8144 340.758 85.4095 340.758 86.0914C340.758 86.7675 340.633 87.3584 340.383 87.8641C340.136 88.3698 339.789 88.7632 339.343 89.0445C338.9 89.3257 338.383 89.4664 337.792 89.4664ZM337.792 88.563C338.241 88.563 338.61 88.4479 338.9 88.2178C339.19 87.9877 339.404 87.6851 339.543 87.3101C339.683 86.9351 339.752 86.5289 339.752 86.0914C339.752 85.6539 339.683 85.2462 339.543 84.8684C339.404 84.4905 339.19 84.1851 338.9 83.9522C338.61 83.7192 338.241 83.6027 337.792 83.6027C337.343 83.6027 336.974 83.7192 336.684 83.9522C336.394 84.1851 336.18 84.4905 336.04 84.8684C335.901 85.2462 335.832 85.6539 335.832 86.0914C335.832 86.5289 335.901 86.9351 336.04 87.3101C336.18 87.6851 336.394 87.9877 336.684 88.2178C336.974 88.4479 337.343 88.563 337.792 88.563ZM346.418 86.6539V82.7845H347.424V89.33H346.418V88.222H346.35C346.196 88.5544 345.958 88.8371 345.634 89.0701C345.31 89.3002 344.901 89.4152 344.407 89.4152C343.997 89.4152 343.634 89.3257 343.316 89.1468C342.997 88.9649 342.747 88.6922 342.566 88.3286C342.384 87.9621 342.293 87.5005 342.293 86.9436V82.7845H343.299V86.8755C343.299 87.3527 343.432 87.7334 343.699 88.0175C343.969 88.3016 344.313 88.4436 344.73 88.4436C344.98 88.4436 345.235 88.3797 345.493 88.2519C345.755 88.124 345.973 87.928 346.149 87.6638C346.328 87.3996 346.418 87.063 346.418 86.6539ZM349.266 89.33V82.7845H350.237V83.7732H350.305C350.425 83.4493 350.641 83.1865 350.953 82.9848C351.266 82.7831 351.618 82.6823 352.01 82.6823C352.084 82.6823 352.176 82.6837 352.287 82.6865C352.398 82.6894 352.482 82.6936 352.538 82.6993V83.722C352.504 83.7135 352.426 83.7007 352.304 83.6837C352.185 83.6638 352.058 83.6539 351.925 83.6539C351.607 83.6539 351.322 83.7206 351.072 83.8541C350.825 83.9848 350.629 84.1666 350.484 84.3996C350.342 84.6297 350.271 84.8925 350.271 85.188V89.33H349.266ZM356.276 89.4664C355.645 89.4664 355.101 89.3272 354.643 89.0488C354.189 88.7675 353.838 88.3755 353.591 87.8726C353.347 87.3669 353.224 86.7789 353.224 86.1084C353.224 85.438 353.347 84.847 353.591 84.3357C353.838 83.8215 354.182 83.4209 354.622 83.134C355.065 82.8442 355.582 82.6993 356.173 82.6993C356.514 82.6993 356.851 82.7561 357.183 82.8698C357.516 82.9834 357.818 83.1681 358.091 83.4238C358.364 83.6766 358.581 84.0118 358.743 84.4294C358.905 84.847 358.986 85.3613 358.986 85.972V86.3982H353.94V85.5289H357.963C357.963 85.1595 357.889 84.83 357.741 84.5402C357.597 84.2505 357.389 84.0218 357.119 83.8541C356.852 83.6865 356.537 83.6027 356.173 83.6027C355.773 83.6027 355.426 83.7022 355.134 83.901C354.844 84.097 354.621 84.3527 354.464 84.6681C354.308 84.9834 354.23 85.3215 354.23 85.6823V86.2618C354.23 86.7561 354.315 87.1752 354.486 87.5189C354.659 87.8598 354.899 88.1198 355.206 88.2988C355.513 88.4749 355.869 88.563 356.276 88.563C356.54 88.563 356.778 88.526 356.991 88.4522C357.207 88.3755 357.393 88.2618 357.55 88.1113C357.706 87.9578 357.827 87.7675 357.912 87.5402L358.884 87.813C358.781 88.1425 358.609 88.4323 358.368 88.6823C358.126 88.9294 357.828 89.1226 357.473 89.2618C357.118 89.3982 356.719 89.4664 356.276 89.4664ZM360.516 89.33V82.7845H361.521V89.33H360.516ZM361.027 81.6936C360.831 81.6936 360.662 81.6269 360.52 81.4934C360.381 81.3598 360.311 81.1993 360.311 81.0118C360.311 80.8243 360.381 80.6638 360.52 80.5303C360.662 80.3968 360.831 80.33 361.027 80.33C361.223 80.33 361.391 80.3968 361.53 80.5303C361.672 80.6638 361.743 80.8243 361.743 81.0118C361.743 81.1993 361.672 81.3598 361.53 81.4934C361.391 81.6269 361.223 81.6936 361.027 81.6936Z" fill="#464F55"/>
<path d="M48.7 68.38L41.02 48.61H15.71L8.12 68.38H0L24.92 4.32001H32.16L57.03 68.38H48.69H48.7ZM38.62 41.5L31.46 22.17L28.41 12.61C27.54 16.1 26.62 19.29 25.66 22.17L18.42 41.5H38.63H38.62Z" fill="#464F55"/>
<path d="M64.99 21.47V51.32C64.99 55.19 65.86 58.06 67.59 59.94C69.32 61.82 72 62.75 75.64 62.75C80.56 62.75 84.14 61.38 86.38 58.65C88.62 55.92 89.74 51.51 89.74 45.43V21.47H97.64V68.39H91.18L90.04 62.06H89.65C88.22 64.36 86.2 66.13 83.58 67.38C80.96 68.63 77.92 69.26 74.46 69.26C68.7 69.26 64.36 67.88 61.43 65.11C58.51 62.35 57.04 57.92 57.04 51.84V21.46H64.98L64.99 21.47Z" fill="#464F55"/>
<path d="M121.68 62.84C122.7 62.84 123.89 62.74 125.26 62.53C126.63 62.33 127.66 62.09 128.36 61.83V67.85C127.63 68.17 126.51 68.48 124.98 68.79C123.45 69.1 121.9 69.25 120.33 69.25C110.96 69.25 106.28 64.32 106.28 54.46V27.57H99.52V22.82L106.37 20.68L109.51 9.47H114.18V21.47H128.01V27.58H114.18V54.25C114.18 57.01 114.84 59.14 116.17 60.62C117.5 62.1 119.33 62.85 121.69 62.85L121.68 62.84Z" fill="#464F55"/>
<path d="M172.39 46.34C172.39 54.17 170.41 58.28 166.45 62.67C162.49 67.06 157.02 69.26 150.04 69.26C145.71 69.26 141.86 68.25 138.52 66.23C135.17 64.21 132.6 61.31 130.8 57.52C129 53.74 128.09 51.34 128.09 46.34C128.09 38.54 130.04 32.47 133.94 28.12C137.84 23.77 143.31 21.6 150.35 21.6C157.39 21.6 162.46 23.82 166.43 28.25C170.4 32.69 172.39 38.72 172.39 46.34ZM136.22 46.34C136.22 52.36 137.41 54.94 139.78 58.06C142.15 61.19 145.65 62.75 150.28 62.75C154.91 62.75 158.32 61.19 160.71 58.06C163.09 54.93 164.29 52.36 164.29 46.34C164.29 40.32 163.09 35.79 160.69 32.75C158.29 29.71 154.78 28.19 150.15 28.19C140.87 28.19 136.23 34.24 136.23 46.34H136.22Z" fill="#464F55"/>
<path d="M239.41 68.38H222.22L194.47 20.12H194.08C194.63 28.64 194.91 34.72 194.91 38.36V68.38H182.82V4.58H199.88L227.59 52.36H227.9C227.46 44.07 227.25 38.21 227.25 34.77V4.58H239.43V68.38H239.41Z" fill="#464F55"/>
<path d="M317.8 58.65C320.13 58.65 322.92 58.14 326.18 57.12V67.03C322.86 68.51 318.79 69.26 313.96 69.26C308.64 69.26 304.76 67.91 302.33 65.22C299.9 62.53 298.69 58.49 298.69 53.11V29.59H292.32V25.96L299.65 21.51L303.49 9.21001H312V21.6H325.66V29.59H312V53.11C312 55 312.53 56.4 313.59 57.3C314.65 58.2 316.06 58.65 317.8 58.65Z" fill="#464F55"/>
<path d="M329.22 8.98C329.22 4.65 331.64 2.48 336.46 2.48C341.28 2.48 343.7 4.65 343.7 8.98C343.7 11.05 343.1 12.65 341.89 13.8C340.68 14.95 338.87 15.52 336.46 15.52C331.63 15.52 329.22 13.34 329.22 8.97V8.98ZM343.1 68.38H329.79V21.59H343.1V68.38Z" fill="#464F55"/>
<path d="M366.25 21.59V16.54C366.25 14.79 366.67 13.36 367.52 12.24C368.36 11.12 369.73 10.56 371.62 10.56C373.89 10.56 376.36 10.98 379.04 11.83L382.44 2.05999C378.86 0.689994 374.77 0.00999451 370.18 0.00999451C364.16 0.00999451 359.78 1.28999 357.04 3.84999C354.31 6.40999 352.94 10.47 352.94 16.03V21.61L345.61 25.19V31.6H352.94V68.4H366.25V31.59H376.17L372.17 21.6H366.25V21.59Z" fill="#464F55"/>
<path d="M408.74 21.59L399.71 47.04C398.78 49.69 398.15 52.51 397.83 55.51H397.57C397.28 52.25 396.74 49.43 395.96 47.04L386.75 21.59H377.78V31.58H376.18L391.56 68.03L390.77 70.43C389.78 73.34 388.41 75.51 386.65 76.95C384.89 78.39 382.83 79.11 380.47 79.11C378.58 79.11 376.83 78.92 375.23 78.54V89.1C377.44 89.59 379.7 89.84 381.99 89.84C386.67 89.84 390.77 88.57 394.27 86.04C397.77 83.51 400.47 79.7 402.37 74.61L423.01 21.58H408.74V21.59Z" fill="#464F55"/>
<path d="M276.92 34.74C276.06 33.93 275.22 33.3 274.33 32.74C272.28 31.47 270.05 30.74 267.64 30.55C262.93 30.17 258.83 31.57 255.37 34.78C253.98 36.06 252.86 37.56 252.12 39.32C251.81 40.07 251.47 40.8 251.16 41.55C250.96 42.04 250.65 42.27 250.11 42.27C248.15 42.26 246.19 42.27 244.23 42.27C243.7 42.27 243.32 42.05 243.21 41.62C243.15 41.37 243.15 41.09 243.21 40.84C243.37 40.19 243.55 39.55 243.76 38.92C245.7 33.08 249.34 28.61 254.66 25.53C257.14 24.1 259.82 23.23 262.66 22.86C269.49 21.97 275.61 23.67 281.02 27.92C281.41 28.23 281.77 28.57 282.15 28.89C282.23 28.96 282.31 29.03 282.41 29.11C283 28.53 283.57 27.96 284.15 27.39C284.9 26.65 285.64 25.9 286.39 25.17C287.27 24.31 288.56 24.4 289.32 25.36C289.54 25.64 289.68 25.96 289.71 26.32C289.71 26.44 289.73 26.56 289.73 26.68C289.73 31.17 289.73 35.66 289.73 40.15C289.73 40.78 289.55 41.31 289.08 41.74C288.73 42.06 288.32 42.25 287.84 42.25C287.74 42.25 287.65 42.25 287.55 42.25C283.11 42.25 278.67 42.25 274.23 42.25C273.76 42.25 273.32 42.19 272.92 41.91C271.89 41.18 271.75 39.81 272.64 38.91C273.94 37.59 275.25 36.29 276.57 34.98C276.66 34.89 276.79 34.82 276.93 34.72L276.92 34.74Z" fill="#464F55"/>
<path d="M249.83 62.2C249.73 62.34 249.66 62.46 249.57 62.55C248.39 63.73 247.21 64.91 246.04 66.1C245.62 66.52 245.14 66.79 244.53 66.78C243.51 66.78 242.63 65.93 242.58 64.91C242.58 64.84 242.58 64.76 242.58 64.69C242.58 60.19 242.58 55.69 242.58 51.19C242.58 50.57 242.77 50.06 243.22 49.63C243.55 49.32 243.94 49.15 244.39 49.11C244.51 49.1 244.63 49.1 244.75 49.1C249.19 49.1 253.63 49.1 258.07 49.1C258.36 49.1 258.66 49.13 258.93 49.22C260.28 49.67 260.71 51.32 259.74 52.38C259.16 53.01 258.53 53.6 257.93 54.21C257.18 54.96 256.42 55.71 255.67 56.47C255.61 56.53 255.56 56.6 255.49 56.68C255.75 56.9 255.99 57.12 256.24 57.33C258.53 59.19 261.12 60.36 264.04 60.76C270.39 61.63 276.38 58.59 279.52 53.42C279.76 53.02 279.96 52.58 280.15 52.15C280.48 51.42 280.79 50.69 281.1 49.95C281.41 49.22 281.58 49.1 282.39 49.1C284.14 49.1 285.9 49.1 287.65 49.1C287.73 49.1 287.82 49.1 287.9 49.1C288 49.1 288.09 49.12 288.19 49.14C288.72 49.27 289.05 49.77 288.92 50.3C287.89 54.62 285.94 58.46 282.83 61.67C280.29 64.29 277.33 66.28 273.87 67.48C271.85 68.18 269.76 68.56 267.63 68.7C263.64 68.96 259.83 68.25 256.2 66.57C254 65.55 252.01 64.21 250.22 62.57C250.11 62.47 250.01 62.38 249.82 62.2H249.83Z" fill="#464F55"/>
<path d="M423.22 29.94C427.826 29.94 431.56 26.206 431.56 21.6C431.56 16.9939 427.826 13.26 423.22 13.26C418.614 13.26 414.88 16.9939 414.88 21.6C414.88 26.206 418.614 29.94 423.22 29.94Z" fill="#F72B44"/>
</g>
<defs>
<clipPath id="clip0_1_2">
<rect width="431.56" height="96.27" fill="white"/>
</clipPath>
</defs>
</svg>
